<svg xmlns="http://www.w3.org/2000/svg" viewBox="0 0 852.12 616.15"><defs><style>.cls-1{fill:#f2d0d2;}</style></defs><g id="Layer_2" data-name="Layer 2"><g id="Layer_1-2" data-name="Layer 1"><path class="cls-1" d="M706.51,199.51c34.93,29.83,24.39,72.13,32.16,120,23.92,147.4,110.9,137.11,112.86,207,.68,24.23,3.51,46.39-13.73,66.41-12.58,14.63-29.12,25.11-49.27,23-38.07-4.09-75.29-7.21-109.54-27C627.4,559.1,569.82,517.07,515.6,495c-23.94-9.73-51.76-21.3-77.6-23.67-30.21-2.76-55.53-.32-85.34,3.69-26,3.49-49.15-2.74-74.7-2.06-27.12.71-55.46-4-82.22-8-28.71-4.29-55.81-18.16-82.05-30.08-28.53-13-45.29-31.5-64.75-55.28-22.79-27.84-29.94-60.6-39-94.45C1.53,253.86-1.89,218.39,1,186.05,7.3,116.23,50.5,63.64,112.7,32.35c18.37-9.25,39.08-13.22,58.83-18.51S211.22,1.68,231.74.45c35.18-2.11,68.09,3.16,100.7,16.71,82.48,34.28,118.49,130.78,205.21,156.19,30.51,8.93,53.93,2.46,84.19,0C649.71,171,685.22,181.33,706.51,199.51Z"/></g></g></svg>