<svg xmlns="http://www.w3.org/2000/svg" viewBox="0 0 771.33 492.52"><defs><style>.cls-1{fill:#f2d0d2;}</style></defs><g id="Layer_2" data-name="Layer 2"><g id="Layer_1-2" data-name="Layer 1"><path class="cls-1" d="M615.81,382.62c19-3.58,43.31-3.06,68-14.38,40-18.37,62.94-43.1,78.88-80.48C779.74,247.68,770.38,212,745.21,178c-15.06-20.34-42.21-36.12-63.94-48.62-25.26-14.53-42-23-71.9-24.47-25.9-1.3-49.34-1.64-75,1.76S485.54,119.57,460.45,124c-42.58,7.49-95.5.52-134-19.11A731.59,731.59,0,0,1,254,62.82c-20.64-13.79-39-33.76-61.05-45C146.85-5.79,82.13-8.93,40.32,26.82,22.41,42.13,1.45,58.2.19,83.22-3.16,150,38.12,224.63,70.2,277.59c20.77,34.3,44.66,65.59,62.14,101.52,27.41,56.39,56.82,91.22,116.55,107.59C298,500.15,339,488.33,378.26,471.1c52.87-23.21,108.31-39.75,162-60.48C565.5,400.9,589,387.69,615.81,382.62Z"/></g></g></svg>